<svg xmlns="http://www.w3.org/2000/svg" width="98" height="99" viewBox="0 0 98 99">
    <path fill="#FFF" fill-rule="nonzero" d="M63.7 12.743v36.61c-.003 6.448-4.15 12.153-10.253 14.104-6.102 1.95-12.757-.3-16.452-5.567a14.892 14.892 0 0 1 .282-17.478c3.863-5.143 10.587-7.176 16.623-5.026V.246C78.66 2.72 98 23.764 98 49.354c0 27.257-21.937 49.352-49 49.352S0 76.61 0 49.353C0 23.763 19.34 2.719 44.1.247v9.93C23.585 12.806 8.626 31.032 9.92 51.82 11.217 72.61 28.32 88.81 49 88.835c18.771.01 34.915-13.383 38.5-31.941 3.585-18.559-6.395-37.072-23.8-44.151z"/>
</svg>
