<svg xmlns="http://www.w3.org/2000/svg" width="89" height="74" viewBox="0 0 89 74">
    <g fill="#FFF" fill-rule="evenodd">
        <path d="M24.98 11.872c-.057-1.054-1.023-1.68-2.059-1.68-1.015 0-1.982.626-2.03 1.68.048.987 1.015 1.637 2.03 1.637 1.036 0 2.002-.65 2.06-1.637"/>
        <path d="M20.53 19.556c1.122-.642 1.384-1.762.993-2.223-2.17-2.214-3.358-3.157-2.79-5.577.327-1.43.69-2.336 1.96-3.109 2.584-1.628 7.152-1.613 7.495-1.613 1.145.046 2.09.297 2.879.686-1.026.927-1.724 2.182-1.89 3.621a5.9 5.9 0 0 0-.03.393l-.504 4.35a6.135 6.135 0 0 0-.06.391c-.313 2.698 1.336 5.202 3.882 6.264-.009.077-.023.153-.023.231 0 .538.2 1.024.52 1.382-.054 1.257-.357 4.97-2.101 9.054a24.551 24.551 0 0 1-.832 1.743 15.824 15.824 0 0 1-.947-1.197c-1.228-1.696-1.934-3.34-2.273-4.508-.324-1.136-.77-2.518-1.583-3.086-.647-.42-1.326.256-1.303 1.012 0 .193-.037 5.317 4.624 10.254a21.804 21.804 0 0 1-3.025 3.522c-4.782-3.308-8.178-8.02-8.166-14.103 0-2.683.546-6.065 3.173-7.487zm13.606-.287a3.739 3.739 0 0 0 4.122-3.097l.656-2.76a3.763 3.763 0 0 0 .165-1.317c-.008-.02-.011-.043-.008-.067-.011-.052-.024-.11-.01-.196.021-.108.09-.25.317-.298a.623.623 0 0 1 .213-.017c.144.017.218.109.263.178.122.188.141 1.38 0 1.975a5.023 5.023 0 0 1-.074.272l-.7 2.944a4.32 4.32 0 0 1-5.263 3.482 4.318 4.318 0 0 1-3.28-4.8.15.15 0 0 1 .157-.129c.081.007.139.07.14.148a3.74 3.74 0 0 0 3.302 3.682zm12.176 49.675c-.097.765-4.45.71-4.463.71-.037 0-.007-13.746-.007-18.442 0 0 .02-1.136 1.256-1.03l2.15.344c.505.224 1.37.617 1.423 2.281.09 3.833.09 7.666-.113 11.501-.08 1.972-.279 4.54-.246 4.636zM3.616 61.327c.446-6.1 4.789-10.529 12.558-12.807 9.824-2.882 14.402-9.43 16.513-14.417 1.691-3.996 2.104-7.588 2.204-9.254.658-.247 1.141-.878 1.224-1.649 2.792-.395 5.047-2.475 5.364-5.222.013-.108.018-.214.025-.321 9.212 2.1 13.871 9.438 17.824 15.594 2.33 3.538 4.774 8.514 5.692 11.114.113.88-.208 1.349-3.97 1.2-9.846-.674-21.416-2.481-28.435-7.976a25.191 25.191 0 0 1-1.472 2.354 25.853 25.853 0 0 0 4.5 2.711c3.493 1.58-.589 2.995-3.364 1.974a33.131 33.131 0 0 1-3.693-1.634 23.804 23.804 0 0 1-2.398 2.123c4.51 2.453 8.808 3.35 9.651 3.592 1.918.535 2.486 2.806 2.486 3.405.017 4.427-.14 12.758-.205 13.655-.018.51.131 2.83-.575 3.284-1 .946-5.266-.237-5.92-.395-2.747-.699-13.286-.568-5.773 3.313 2.066 1.145 3.822 1.583 6.118 1.583 6.83-.69 9.718-.587 13.932-.28 2.42.187 4.38-1.745 4.21-4.081-.193-2.122-.199-6.753-.044-10.283.01-.265.01-1.991-.048-5.488.031-1.709 1.548-2.13 2.346-2.279 5.846.415 15.73 1.385 33.556-1.859 1.968-.367 4.217-3.108 1.525-3.553-27.956-4.672-26.226-24.926-43.505-29.78-.76-.22-1.497-.35-2.19-.465l.262-2.253c.023-.128.044-.258.06-.39.384-3.313-2.192-6.336-5.754-6.752a6.856 6.856 0 0 0-2.695.221c-1.238-.956-2.836-1.604-4.879-1.712.41-.778.984-1.617 1.768-2.24.194.298.476.573.875.569.867-.01 2.095-.14 3.167.653.694.514 1.263.194 1.579-.095.308 1.083.13 1.683.13 1.683l2.477.552S39.14.888 33.608.47a20.424 20.424 0 0 0-2.08-.374c-.547-.07-.824.368-.96.74-1.998.736-3.104 2.346-3.712 3.73-2.354.074-6.762.598-9.846 3.307-.86.774-1.918 2.1-2.467 2.518-2.838 2.09-10.344 2.427-11.917 3.258-.969.55-4.151 4.344-1.223 4.179.066 0 1.7-.114 3.077-.38 1.916-.41 9.61-1.669 11.392-1.702.91-.106 3.025 1.628 2.098 2.591-3.798 3.028-3.351 8.473-3.351 8.556-.008 7.884 3.942 12.978 8.446 16.254-2.155 1.504-4.636 2.673-7.438 3.493C11.15 47.954 7.674 49.96 5.3 52.6c-2.168 2.413-3.39 5.3-3.63 8.584"/>
    </g>
</svg>
