<svg xmlns="http://www.w3.org/2000/svg" width="32" height="32" viewBox="0 0 32 32">
    <g fill="#FFF" fill-rule="evenodd">
        <path d="M11.848 8.889c-.016-.309-.292-.492-.588-.492-.29 0-.566.183-.58.492.014.289.29.48.58.48.296 0 .572-.191.588-.48M1.97 21.557l.679 1.928.45.106.237-.366-.679-1.925z"/>
        <path d="M9.672 13.332c0-.786.156-1.776.906-2.193.32-.188.395-.516.283-.65-.619-.65-.958-.925-.796-1.634.093-.42.197-.684.56-.91.737-.477 2.04-.473 2.139-.473.327.014.596.087.822.2a1.702 1.702 0 0 0-.548 1.177l-.144 1.274a1.84 1.84 0 0 0-.018.114c-.089.79.382 1.523 1.109 1.834-.003.023-.007.045-.007.068 0 .158.057.3.148.405a8.069 8.069 0 0 1-.6 2.651 7.274 7.274 0 0 1-.237.51 4.618 4.618 0 0 1-.27-.35 4.471 4.471 0 0 1-.649-1.32c-.092-.333-.22-.737-.452-.904-.184-.123-.378.075-.372.296 0 .057-.01 1.558 1.32 3.003a6.344 6.344 0 0 1-.863 1.032c-1.365-.969-2.335-2.348-2.331-4.13m4.667-2.3a1.07 1.07 0 0 0 1.3-.884l.187-.808c.007-.026.014-.049.019-.072a1.13 1.13 0 0 0 .028-.314c-.002-.006-.003-.012-.002-.02l-.001-.002c-.003-.013-.006-.03-.002-.055.006-.031.026-.073.09-.087a.174.174 0 0 1 .06-.005.101.101 0 0 1 .076.052c.035.055.04.404 0 .578a1.501 1.501 0 0 1-.021.08l-.2.862a1.236 1.236 0 0 1-1.502 1.02 1.263 1.263 0 0 1-.937-1.406.043.043 0 0 1 .045-.037c.023.001.04.02.04.043.006.505.343.939.82 1.055m3.669 13.213c-.023.578-.08 1.33-.07 1.358-.028.224-1.27.208-1.274.208-.01 0-.002-4.026-.002-5.401 0 0 .005-.333.358-.302l.614.101c.144.066.39.18.406.668a45.124 45.124 0 0 1-.032 3.368M30.37 9.882a15.774 15.774 0 0 0-3.29-5.022 15.288 15.288 0 0 0-4.88-3.386A14.89 14.89 0 0 0 16.222.232c-2.073 0-4.084.418-5.977 1.242a15.286 15.286 0 0 0-4.88 3.386 15.779 15.779 0 0 0-3.29 5.022 16.103 16.103 0 0 0-1.207 6.15c0 .812.06 1.614.176 2.404l-.262.433.867 2.453 1.075-.403-.867-2.452-.254-.063a15.79 15.79 0 0 1-.178-2.371C1.426 7.637 8.064.805 16.223.805S31.02 7.637 31.02 16.033 24.382 31.26 16.223 31.26c-2.717 0-5.23-.689-7.273-1.99-1.786-1.24-3.36-3.647-3.2-5.898.127-1.786 1.366-3.083 3.584-3.75 2.805-.844 4.112-2.762 4.714-4.223.483-1.17.6-2.222.63-2.71a.572.572 0 0 0 .349-.483c.797-.115 1.44-.724 1.53-1.529.005-.031.006-.063.008-.094 2.63.615 3.96 2.764 5.088 4.567.665 1.036 1.363 2.493 1.625 3.255.032.257-.06.395-1.133.351-2.811-.197-6.114-.726-8.117-2.336a7.41 7.41 0 0 1-.42.69c.36.28.785.55 1.284.794.997.462-.168.877-.96.578a9.338 9.338 0 0 1-1.054-.479 6.854 6.854 0 0 1-.685.622c1.287.718 2.514.981 2.755 1.052.548.157.71.822.71.997a132.1 132.1 0 0 1-.059 3.999c-.005.15.038.829-.164.962-.285.277-1.503-.07-1.69-.116-.784-.205-3.793-.166-1.648.97.59.336 1.091.464 1.746.464 1.95-.202 2.775-.172 3.978-.082.69.055 1.25-.511 1.201-1.195-.055-.622-.056-1.978-.012-3.012.002-.077.002-.583-.014-1.607.01-.5.442-.624.67-.667 1.669.121 4.49.405 9.579-.545.562-.107 1.204-.91.435-1.04-7.98-1.369-7.486-7.3-12.419-8.721a5.245 5.245 0 0 0-.625-.137l.075-.66a1.84 1.84 0 0 0 .017-.114c.11-.97-.626-1.855-1.643-1.977a1.91 1.91 0 0 0-.769.065c-.354-.28-.81-.47-1.393-.502a2.05 2.05 0 0 1 .505-.656c.055.087.136.168.25.167.247-.003.598-.041.904.191.198.15.36.057.45-.028.088.317.038.493.038.493l.707.162s.113-1.416-1.466-1.538a5.697 5.697 0 0 0-.594-.11c-.156-.02-.235.108-.274.217-.57.215-.886.687-1.06 1.092-.671.022-1.93.175-2.81.969-.246.227-.547.615-.704.737-.81.612-2.953.711-3.402.954-.277.162-1.185 1.272-.35 1.224.02 0 .486-.033.88-.11.546-.121 2.742-.49 3.251-.5.26-.03.864.477.599.76-1.084.886-.957 2.48-.957 2.505-.002 2.309 1.126 3.8 2.412 4.76a7.157 7.157 0 0 1-2.124 1.023c-1.278.385-2.27.972-2.948 1.746a4.177 4.177 0 0 0-1.036 2.513c-.092 1.291.34 2.742 1.214 4.085a8.563 8.563 0 0 0 2.185 2.297l-.002.004.057.035c.29.2.586.374.884.515v-.002c1.956 1.028 4.245 1.57 6.69 1.57 2.073 0 4.084-.419 5.977-1.243a15.292 15.292 0 0 0 4.88-3.386 15.773 15.773 0 0 0 3.291-5.022 16.096 16.096 0 0 0 1.207-6.15c0-2.133-.406-4.202-1.207-6.15"/>
    </g>
</svg>
