<svg xmlns="http://www.w3.org/2000/svg" width="119" height="36" viewBox="0 0 119 36">
    <g fill="#FFF" fill-rule="evenodd">
        <path d="M58.197 10c-.019-.347-.334-.553-.673-.553-.332 0-.648.206-.664.553.016.325.332.54.664.54.339 0 .654-.215.673-.54M46.881 24.252l.778 2.168.516.12.271-.412-.777-2.165z"/>
        <path d="M55.704 14.998c0-.884.179-1.998 1.038-2.467.367-.211.452-.58.325-.732-.71-.73-1.098-1.04-.912-1.837.106-.472.225-.77.64-1.024.845-.537 2.339-.532 2.451-.532.375.015.683.098.941.226a1.903 1.903 0 0 0-.627 1.323l-.165 1.433a2.036 2.036 0 0 0-.02.129c-.102.888.437 1.713 1.27 2.063-.003.026-.008.05-.008.077 0 .177.065.337.17.455a8.938 8.938 0 0 1-.687 2.983 8.116 8.116 0 0 1-.272.574 5.208 5.208 0 0 1-.31-.395 4.992 4.992 0 0 1-.743-1.485c-.106-.374-.251-.83-.517-1.016-.212-.139-.434.084-.427.333 0 .064-.012 1.752 1.512 3.378a7.17 7.17 0 0 1-.989 1.16c-1.563-1.089-2.674-2.641-2.67-4.646m5.347-2.587a1.223 1.223 0 0 0 1.488-.995l.214-.909a1.249 1.249 0 0 0 .054-.434c-.002-.006-.003-.014-.002-.022v-.003c-.004-.014-.008-.033-.004-.061.008-.036.03-.082.104-.098a.202.202 0 0 1 .07-.006.116.116 0 0 1 .086.059c.04.062.046.455 0 .65l-.024.09-.229.97a1.414 1.414 0 0 1-1.72 1.147 1.422 1.422 0 0 1-1.074-1.581.05.05 0 0 1 .052-.043.049.049 0 0 1 .045.049 1.23 1.23 0 0 0 .94 1.187m4.202 14.865c-.026.65-.091 1.495-.08 1.527-.032.252-1.456.234-1.46.234-.012 0-.002-4.529-.002-6.076 0 0 .006-.374.41-.34l.704.114c.165.074.448.203.465.752.03 1.262.03 2.525-.037 3.789m14.161-16.158a17.72 17.72 0 0 0-3.769-5.65 17.523 17.523 0 0 0-5.59-3.81A17.322 17.322 0 0 0 63.208.261c-2.374 0-4.677.47-6.846 1.397a17.52 17.52 0 0 0-5.59 3.81 17.725 17.725 0 0 0-3.77 5.65 17.834 17.834 0 0 0-1.382 6.919c0 .913.068 1.815.202 2.703l-.3.487.993 2.76 1.232-.453-.994-2.759-.29-.07a17.451 17.451 0 0 1-.205-2.668c0-9.446 7.604-17.13 16.95-17.13 9.347 0 16.95 7.684 16.95 17.13 0 9.446-7.603 17.13-16.95 17.13-3.112 0-5.99-.774-8.33-2.239-2.047-1.394-3.85-4.102-3.667-6.634.146-2.01 1.566-3.47 4.107-4.22 3.212-.95 4.709-3.107 5.4-4.75.552-1.316.687-2.5.72-3.049a.645.645 0 0 0 .4-.543c.913-.13 1.65-.815 1.754-1.72.004-.036.006-.07.008-.106 3.013.692 4.536 3.11 5.83 5.137.76 1.166 1.56 2.806 1.86 3.662.037.29-.068.445-1.298.396-3.22-.222-7.003-.818-9.298-2.628a8.31 8.31 0 0 1-.482.775c.414.316.9.619 1.472.894 1.142.52-.193.986-1.1.65a10.793 10.793 0 0 1-1.208-.538 7.803 7.803 0 0 1-.784.7c1.475.807 2.88 1.103 3.156 1.183.627.176.813.924.813 1.121.006 1.459-.046 4.204-.067 4.5-.006.167.043.932-.188 1.081-.327.312-1.722-.078-1.936-.13-.898-.23-4.345-.187-1.888 1.092.676.377 1.25.52 2 .52 2.235-.226 3.179-.192 4.557-.091a1.262 1.262 0 0 0 1.376-1.345c-.063-.699-.065-2.225-.014-3.388.003-.087.003-.656-.016-1.808.01-.563.507-.702.767-.75 1.912.136 5.144.456 10.973-.613.644-.121 1.38-1.024.499-1.17-9.142-1.54-8.576-8.213-14.226-9.812a6.103 6.103 0 0 0-.717-.153l.086-.742c.008-.043.015-.086.02-.129.125-1.092-.717-2.088-1.882-2.225a2.226 2.226 0 0 0-.88.073c-.406-.315-.928-.528-1.596-.564.134-.256.321-.533.578-.738.063.098.155.189.286.188.283-.004.685-.047 1.035.215.228.17.414.064.517-.032.1.357.042.555.042.555l.81.182s.13-1.593-1.679-1.73a6.633 6.633 0 0 0-.68-.124c-.179-.023-.269.121-.314.244-.653.242-1.015.773-1.213 1.23-.77.023-2.212.196-3.22 1.088-.282.256-.627.692-.807.83-.928.689-3.382.8-3.897 1.073-.316.182-1.357 1.432-.4 1.377.022 0 .556-.037 1.007-.125.626-.135 3.142-.55 3.725-.56.297-.036.989.536.686.853-1.242.997-1.096 2.792-1.096 2.819-.003 2.597 1.29 4.276 2.762 5.355a8.263 8.263 0 0 1-2.432 1.151c-1.465.433-2.601 1.094-3.377 1.964a4.655 4.655 0 0 0-1.187 2.827c-.106 1.453.388 3.085 1.39 4.596a9.71 9.71 0 0 0 2.504 2.584l-.003.005.065.04c.332.224.671.42 1.013.578v-.002c2.24 1.157 4.863 1.765 7.664 1.765 2.375 0 4.678-.47 6.847-1.397a17.527 17.527 0 0 0 5.59-3.809 17.826 17.826 0 0 0 5.152-12.57c0-2.399-.466-4.727-1.383-6.918M12.145 23.018L2.863 9.238H.248v17.597h2.116V12.22l9.818 14.525.062.091h2.017V9.238h-2.116zM30.304 16.806h-8.471V9.238h-2.116v17.597h2.116v-8.054h8.471v8.054h2.116V9.238h-2.116zM37.892 26.835h2.116V9.238h-2.116zM86.31 26.835h2.116V18.99h6.913v-1.976h-6.913v-5.8h9.048V9.239H86.31zM116.023 9.238l-6.11 14.304-6.11-14.304h-2.963v17.597h2.116V12.403l6.054 14.304.055.128h1.697l6.109-14.432v14.432h2.115V9.238z"/>
    </g>
</svg>
