<svg xmlns="http://www.w3.org/2000/svg" width="16" height="18" viewBox="0 0 16 18">
    <g fill="#FFF" fill-rule="nonzero">
        <path d="M9.026 15.375H7.289v-2.689h.869v-4.31l-2.606.847v3.463h.868v2.689H4.683c-.716 0-1.303.586-1.303 1.313V18h6.949v-1.313c0-.726-.586-1.312-1.303-1.312zM.605 7.28l.388.837.368.794.304.657 9.163-2.98-2.069-4.465zM15.301 1.767A3.04 3.04 0 0 0 11.263.284C10.598.6 9.825 1.426 9.738 1.522l-.2.215 2.085 4.497.291-.013c.126-.008 1.255-.074 1.92-.385a3.038 3.038 0 0 0 1.572-1.728 3.04 3.04 0 0 0-.105-2.34z"/>
    </g>
</svg>
