<?xml version="1.0" encoding="UTF-8"?>
<svg width="18px" height="14px" viewBox="0 0 18 14" version="1.1" xmlns="http://www.w3.org/2000/svg" xmlns:xlink="http://www.w3.org/1999/xlink">
    <!-- Generator: Sketch 51.3 (57544) - http://www.bohemiancoding.com/sketch -->
    <title>volume-mute</title>
    <desc>Created with Sketch.</desc>
    <defs></defs>
    <g id="Symbols" stroke="none" stroke-width="1" fill="none" fill-rule="evenodd">
        <g id="volume-/-mute" fill="#FFFFFF" fill-rule="nonzero">
            <g id="volume-mute">
                <path d="M3.82617391,10.1111111 L0.782608696,10.1111111 C0.350385848,10.1111111 0,9.76288814 0,9.33333333 L0,4.66666667 C-8.68870193e-17,4.23711186 0.350385848,3.88888889 0.782608696,3.88888889 L3.82617391,3.88888889 L7.96930435,0.519555556 C8.08631948,0.424215401 8.24815636,0.404467425 8.38490344,0.46884251 C8.52165051,0.533217594 8.6087966,0.67017685 8.60869565,0.820555556 L8.60869565,13.1794444 C8.6087966,13.3298232 8.52165051,13.4667824 8.38490344,13.5311575 C8.24815636,13.5955326 8.08631948,13.5757846 7.96930435,13.4804444 L3.82695652,10.1111111 L3.82617391,10.1111111 Z M15.1935652,7 L17.9608696,9.75022222 L16.8542609,10.85 L14.0869565,8.09977778 L11.3196522,10.85 L10.2130435,9.75022222 L12.9803478,7 L10.2130435,4.24977778 L11.3196522,3.15 L14.0869565,5.90022222 L16.8542609,3.15 L17.9608696,4.24977778 L15.1935652,7 Z" id="Shape"></path>
            </g>
        </g>
    </g>
</svg>