<!-- Generated by IcoMoon.io -->
<svg version="1.1" xmlns="http://www.w3.org/2000/svg" width="1479" height="1024" viewBox="0 0 1479 1024">
<title></title>
<g id="icomoon-ignore">
</g>
<path d="M774.615 932.105c-0.008 15.583 8.406 29.872 21.818 37.051s29.586 6.051 41.938-2.925l577.121-420.189c10.706-7.821 17.070-20.512 17.070-34.042s-6.363-26.221-17.070-34.042l-577.121-420.189c-12.352-8.976-28.526-10.104-41.938-2.925s-21.826 21.468-21.818 37.051v840.211zM687.315 546.042c10.706-7.821 17.070-20.512 17.070-34.042s-6.363-26.221-17.070-34.042l-577.121-420.189c-12.352-8.976-28.526-10.104-41.938-2.925s-21.826 21.468-21.818 37.051v840.211c-0.008 15.583 8.406 29.872 21.818 37.051s29.586 6.051 41.938-2.925l577.121-420.189z"></path>
</svg>
