<!-- Generated by IcoMoon.io -->
<svg version="1.1" xmlns="http://www.w3.org/2000/svg" width="1243" height="1024" viewBox="0 0 1243 1024">
<title></title>
<g id="icomoon-ignore">
</g>
<path d="M276.108 739.556h-219.804c-31.215 0-56.519-25.47-56.519-56.889v-341.333c0-31.419 25.305-56.889 56.519-56.889h219.804l299.214-246.443c8.451-6.973 20.139-8.418 30.014-3.709s16.169 14.726 16.162 25.725v903.964c0.007 10.999-6.286 21.017-16.162 25.725s-21.564 3.264-30.014-3.709l-299.214-246.443zM1040.082 974.734l-80.032-80.555c108.375-97.060 170.297-236.166 170.124-382.18 0.142-153.676-68.439-299.255-186.74-396.402l80.258-80.782c139.394 118.781 219.703 293.352 219.522 477.184 0 183.353-78.336 348.274-203.131 462.734zM839.833 773.177l-80.371-80.896c55.613-43.043 88.177-109.669 88.114-180.281 0-81.351-42.39-152.747-106.257-192.967l81.332-81.863c86.825 64.287 138.055 166.34 137.964 274.83 0 104.789-46.911 198.542-120.782 261.177z"></path>
</svg>
