<svg xmlns="http://www.w3.org/2000/svg" width="25" height="14" viewBox="0 0 25 14">
    <path fill="#FFF" fill-rule="nonzero" d="M24.838 12.631a1.662 1.662 0 0 0-.084-.159c-.433-.764-1.261-1.702-2.483-2.813l-.026-.026-.013-.012-.013-.013h-.013c-.555-.518-.906-.866-1.053-1.044-.27-.34-.33-.683-.183-1.031.104-.264.495-.82 1.17-1.668.356-.45.638-.81.845-1.082 1.5-1.952 2.15-3.2 1.95-3.742l-.077-.127c-.052-.077-.186-.147-.403-.21-.217-.064-.494-.074-.832-.032L19.88.697a.496.496 0 0 0-.26.007l-.17.038-.065.032-.051.038a.573.573 0 0 0-.143.134.869.869 0 0 0-.13.222 20.596 20.596 0 0 1-1.391 2.865c-.321.526-.616.982-.885 1.368-.268.386-.494.67-.675.853a4.683 4.683 0 0 1-.495.439c-.147.11-.26.157-.337.14a9.698 9.698 0 0 1-.222-.051.854.854 0 0 1-.292-.312 1.375 1.375 0 0 1-.15-.496 5.362 5.362 0 0 1-.045-.516c-.004-.144-.002-.348.006-.611.01-.263.013-.441.013-.535 0-.322.007-.672.02-1.05l.032-.897c.01-.22.013-.454.013-.7 0-.246-.015-.44-.045-.58a1.952 1.952 0 0 0-.136-.407.69.69 0 0 0-.267-.305A1.52 1.52 0 0 0 13.77.2c-.46-.102-1.045-.157-1.756-.166C10.401.018 9.365.12 8.906.341c-.182.093-.347.22-.494.382-.156.186-.178.288-.065.305.52.076.888.259 1.105.547l.078.153c.06.11.121.306.182.586.06.28.1.59.117.929.043.62.043 1.15 0 1.591-.043.441-.084.785-.123 1.031-.04.246-.098.446-.176.598a2.51 2.51 0 0 1-.156.28.222.222 0 0 1-.065.064.992.992 0 0 1-.351.064c-.122 0-.269-.06-.442-.178a3.095 3.095 0 0 1-.54-.49 6.555 6.555 0 0 1-.63-.873 15.116 15.116 0 0 1-.728-1.323l-.208-.37A31.5 31.5 0 0 1 5.877 2.6a19.795 19.795 0 0 1-.598-1.318.841.841 0 0 0-.312-.407L4.902.837a.896.896 0 0 0-.208-.108 1.403 1.403 0 0 0-.3-.083L.833.67c-.364 0-.61.08-.74.242L.038.99A.404.404 0 0 0 0 1.193c0 .094.026.208.078.344a41.632 41.632 0 0 0 1.697 3.462c.61 1.112 1.142 2.008 1.592 2.686.45.68.91 1.32 1.378 1.922.468.603.778.989.93 1.159.152.17.27.297.358.382l.325.305c.208.204.513.448.916.732s.85.564 1.34.84c.49.276 1.059.5 1.709.675.65.174 1.283.244 1.898.21h1.495c.304-.026.533-.119.69-.28l.051-.064a.834.834 0 0 0 .098-.235c.03-.106.045-.223.045-.35a4.11 4.11 0 0 1 .085-.987c.064-.292.138-.513.22-.661a1.63 1.63 0 0 1 .502-.56.858.858 0 0 1 .103-.045c.208-.068.453-.002.735.197.282.2.546.446.793.739s.544.621.89.986c.348.365.65.636.91.815l.26.153c.174.102.4.195.677.28.277.085.52.106.728.063l3.328-.05c.33 0 .585-.054.767-.16.182-.106.29-.223.325-.35a.966.966 0 0 0 .007-.433 1.572 1.572 0 0 0-.092-.337z"/>
</svg>
