<!-- Generated by IcoMoon.io -->
<svg version="1.1" xmlns="http://www.w3.org/2000/svg" width="32" height="32" viewBox="0 0 32 32">
<title>close</title>
<path d="M19.009 16l12.368-12.368c0.83-0.83 0.83-2.177-0.001-3.007-0.834-0.833-2.179-0.832-3.009-0.003l-12.369 12.368-12.366-12.367c-0.831-0.83-2.177-0.831-3.010 0.002-0.83 0.83-0.831 2.177 0 3.007l12.368 12.367-12.366 12.367c-0.831 0.831-0.831 2.177 0.002 3.010 0.83 0.83 2.177 0.831 3.008 0l12.366-12.367 12.368 12.368c0.83 0.83 2.177 0.83 3.007-0.001 0.833-0.834 0.832-2.179 0.003-3.009l-12.369-12.367z"></path>
</svg>
